# AST/ASF file generated using VICON BodyLanguage
# -----------------------------------------------
:version 1.10
:name VICON
:units
  mass 1.0
  length 0.45
  angle deg
:documentation
   .ast/.asf automatically generated from VICON data using
   VICON BodyBuilder and BodyLanguage model FoxedUp or BRILLIANT.MOD
:root
   order TX TY TZ RX RY RZ
   axis XYZ
   position 0 0 0  
   orientation 0 0 0 
:bonedata
  begin
     id 1 
     name lhipjoint
     direction 0.734343 -0.627749 0.258209 
     length 2.5437 
     axis 0 0 0  XYZ
  end
  begin
     id 2 
     name lfemur
     direction 0.34202 -0.939693 0  
     length 6.7391  
     axis 0 0 20  XYZ
    dof rx ry rz
    limits (-160.0 20.0)
           (-70.0 70.0)
           (-60.0 70.0)
  end
  begin
     id 3 
     name ltibia
     direction 0.34202 -0.939693 0   
     length 7.21536   
     axis 0 0 20   XYZ
    dof rx
    limits (-10.0 170.0)
  end
  begin
     id 4 
     name lfoot
     direction 0.0489572 -0.134509 0.989702   
     length 1.61313   
     axis -90 7.62852e-016 20   XYZ
    dof rx rz
    limits (-45.0 90.0)
           (-70.0 20.0)
  end
  begin
     id 5 
     name ltoes
     direction 1.53451e-011 -4.21692e-011 1   
     length 0.823104   
     axis -90 7.62852e-016 20   XYZ
    dof rx
    limits (-90.0 20.0)
  end
  begin
     id 6 
     name rhipjoint
     direction -0.746398 -0.615468 0.253157   
     length 2.59446  
     axis 0 0 0  XYZ 
  end
  begin
     id 7 
     name rfemur
     direction -0.34202 -0.939693 0   
     length 6.7075   
     axis 0 0 -20   XYZ
    dof rx ry rz
    limits (-160.0 20.0)
           (-70.0 70.0)
           (-70.0 60.0)
  end
  begin
     id 8 
     name rtibia
     direction -0.34202 -0.939693 0   
     length 7.27262   
     axis 0 0 -20   XYZ
    dof rx
    limits (-10.0 170.0)
 end
 begin
     id 9 
     name rfoot
     direction -0.0455203 -0.125066 0.991104   
     length 1.91095  
     axis -90 -7.62852e-016 -20   XYZ
    dof rx rz
    limits (-45.0 90.0)
           (-20.0 70.0)
  end
  begin
     id 10 
     name rtoes
     direction -1.53601e-011 -4.21913e-011 1   
     length 0.969037   
     axis -90 -7.62852e-016 -20   XYZ
    dof rx
    limits (-90.0 20.0)
  end
  begin
     id 11 
     name lowerback
     direction 0.0181546 0.999122 -0.0377542   
     length 1.99916   
     axis 0 0 0   XYZ
    dof rx ry rz
    limits (-20.0 45.0)
           (-30.0 30.0)
           (-30.0 30.0)
  end
  begin
     id 12 
     name upperback
     direction 0.0203486 0.99589 0.0882534   
     length 1.951   
     axis 0 0 0   XYZ
    dof rx ry rz
    limits (-20.0 45.0)
           (-30.0 30.0)
           (-30.0 30.0)
  end
  begin
     id 13 
     name thorax
     direction 0.0131685 0.994241 0.106355   
     length 1.97461   
     axis 0 0 0   XYZ
    dof rx ry rz
    limits (-20.0 45.0)
           (-30.0 30.0)
           (-30.0 30.0)
  end
  begin
     id 14 
     name lowerneck
     direction -0.0281395 0.999325 0.023617   
     length 1.7959   
     axis 0 0 0   XYZ
    dof rx ry rz
    limits (-20.0 45.0)
           (-30.0 30.0)
           (-30.0 30.0)
  end
  begin
     id 15 
     name upperneck
     direction 0.0288721 0.991984 -0.123019   
     length 1.79917   
     axis 0 0 0   XYZ
    dof rx ry rz
    limits (-20.0 45.0)
           (-30.0 30.0)
           (-30.0 30.0)
  end
  begin
     id 16
     name head
     direction 0.0133797 0.998944 -0.0439492  
     length 1.80902  
     axis 0 0 0   XYZ
    dof rx ry rz
    limits (-20.0 45.0)
           (-30.0 30.0)
           (-30.0 30.0)
  end
  begin
     id 17 
     name lclavicle
     direction 0.919195 0.377107 0.113449  
     length 3.17815  
     axis 0 0 0   XYZ
    dof ry rz
    limits (-20.0 10.0)
           (0.0 20.0)
  end
  begin
     id 18 
     name lhumerus
     direction 1 -4.48959e-011 2.13129e-027   
     length 4.84137   
     axis 180 -30 -90   XYZ
    dof rx ry rz
    limits (-60.0 90.0)
           (-90.0 90.0)
           (-90.0 90.0)
  end
  begin
     id 19
     name lradius
     direction 1 -4.48957e-011 -6.30627e-028   
     length 3.2452   
     axis 180 -30 -90   XYZ
    dof rx
    limits (-10.0 170.0)
  end
  begin
     id 20
     name lwrist
     direction 1 -4.4901e-011 9.13299e-027   
     length 1.6226   
     axis -6.84618e-015 90 90   XYZ
    dof ry
    limits (-180.0 0.0)
 end
  begin
     id 21 
     name lhand
     direction 1 -4.48816e-011 1.82293e-026   
     length 0.521221   
     axis -1.16502e-014 90 90   XYZ
    dof rx rz
    limits (-90.0 90.0)
           (-45.0 45.0)
  end
  begin
     id 22 
     name lfingers
     direction 1 -4.49108e-011 3.65687e-026   
     length 0.420221   
     axis -2.33008e-014 90 90   XYZ
    dof rx
    limits (0.0 90.0)
  end
  begin
     id 23
     name lthumb
     direction 0.707107 -6.34943e-011 0.707107   
     length 0.603356   
     axis -90 45 5.69224e-014   XYZ
    dof rx rz
    limits (-45.0 45.0)
           (-45.0 45.0)
  end
  begin
     id 24 
     name rclavicle
     direction -0.90847 0.38596 0.160368   
     length 3.12973  
     axis 0 0 0   XYZ 
    dof ry rz
    limits (-10.0 20.0)
           (-20.0 0.0)
  end
  begin
     id 25 
     name rhumerus
     direction -1 -4.48974e-011 4.47268e-028  
     length 4.72284   
     axis 180 30 90   XYZ
    dof rx ry rz
    limits (-90.0 60.0)
           (-90.0 90.0)
           (-90.0 90.0)
  end
  begin
     id 26 
     name rradius
     direction -1 -4.48969e-011 3.43203e-027   
     length 3.23459   
     axis 180 30 90   XYZ
    dof rx
    limits (-10.0 170.0)
  end
  begin
     id 27 
     name rwrist
     direction -1 -4.48969e-011 9.12911e-027   
     length 1.6173   
     axis -6.84618e-015 -90 -90   XYZ
    dof ry
    limits (-180.0 0.0)
  end
  begin
     id 28
     name rhand
     direction -1 -4.49194e-011 1.83006e-026   
     length 0.307416   
     axis -1.16502e-014 -90 -90   XYZ
    dof rx rz
    limits (-90.0 90.0)
           (-45.0 45.0)
  end
  begin
     id 29
     name rfingers
     direction -1 -4.48423e-011 3.63103e-026   
     length 0.247847   
     axis -2.33008e-014 -90 -90   XYZ
    dof rx
    limits (0.0 90.0)
  end
  begin
     id 30
     name rthumb
     direction -0.707107 -6.34802e-011 0.707107   
     length 0.35586   
     axis -90 -45 -5.69224e-014   XYZ
    dof rx rz
    limits (-45.0 45.0)
           (-45.0 45.0)
  end
:hierarchy
  begin
    root lhipjoint rhipjoint lowerback
    lhipjoint lfemur
    lfemur ltibia
    ltibia lfoot
    lfoot ltoes
    rhipjoint rfemur
    rfemur rtibia
    rtibia rfoot
    rfoot rtoes
    lowerback upperback
    upperback thorax
    thorax lowerneck lclavicle rclavicle
    lowerneck upperneck
    upperneck head
    lclavicle lhumerus
    lhumerus lradius
    lradius lwrist
    lwrist lhand lthumb
    lhand lfingers
    rclavicle rhumerus
    rhumerus rradius
    rradius rwrist
    rwrist rhand rthumb
    rhand rfingers
  end

#!OML:ASF H:\Terrain\Patient Classification 1\Animal1\Tuesday\Animal1.ASF
:FULLY-SPECIFIED
:DEGREES
601
root 1.01185 16.4247 -0.451748 -149.584 -63.4883 156.642
lowerback 12.8802 -1.09573 -2.24735
upperback 6.57355 -2.15783 -1.60103
thorax -0.310827 -1.28469 -0.121436
lowerneck -9.87589 -2.11862 -9.05341
upperneck 3.5768 -2.48538 11.5339
head 2.94012 -0.94948 4.8725
rclavicle 2.06736e-014 1.35174e-014
rhumerus 1.54722 11.7375 -28.575
rradius 33.5391
rwrist -47.2193
rhand 13.9182 18.4739
rfingers 7.12502
rthumb 38.8324 -7.09398
lclavicle 2.06736e-014 1.35174e-014
lhumerus 28.3319 -49.5496 2.96753
lradius 59.2866
lwrist 9.64874
lhand 33.7411 37.1782
lfingers 7.12502
lthumb 57.0352 53.7348
rfemur -38.6762 -9.09875 19.4604
rtibia 36.7028
rfoot -35.5833 -37.3104
rtoes 50.9791
lfemur -27.2741 15.3165 -15.1889
ltibia 61.6379
lfoot 27.124 5.5367
ltoes 10.073
602
root 0.953057 16.3585 -0.459602 -150.545 -62.4619 157.313
lowerback 13.4699 -1.05467 -1.58616
upperback 6.99858 -2.08268 -1.40273
thorax -0.197393 -1.25764 -0.288472
lowerneck -10.1449 -2.17404 -9.26572
upperneck 3.02628 -2.48545 11.6286
head 2.82482 -0.949866 4.93511
rclavicle -7.95139e-016 -2.14687e-014
rhumerus 2.71031 11.8961 -28.8481
rradius 33.7364
rwrist -47.5107
rhand 14.2431 18.3462
rfingers 7.12502
rthumb 39.1387 -7.13396
lclavicle -7.95139e-016 -2.14687e-014
lhumerus 27.811 -48.8973 3.68403
lradius 59.089
lwrist 9.14599
lhand 33.7265 36.5853
lfingers 7.12502
lthumb 57.0224 53.1526
rfemur -39.4775 -9.07831 19.3983
rtibia 38.5077
rfoot -32.6999 -36.5758
rtoes 49.8573
lfemur -28.2425 15.8381 -15.3803
ltibia 63.2057
lfoot 26.0126 3.06177
ltoes 10.8892
603
root 0.89118 16.2969 -0.468953 -151.726 -61.4103 157.999
lowerback 14.4257 -0.990549 -0.949458
upperback 7.40935 -1.99248 -1.19781
thorax -0.287133 -1.2256 -0.427364
lowerneck -10.2578 -2.18919 -9.14637
upperneck 2.37369 -2.46342 11.4621
head 2.64273 -0.950451 4.86178
rclavicle 6.63941e-014 -6.75868e-014
rhumerus 3.84122 12.6602 -28.9054
rradius 33.9999
rwrist -48.154
rhand 13.7058 18.5393
rfingers 7.12502
rthumb 38.632 -7.08515
lclavicle 6.63941e-014 -6.75868e-014
lhumerus 27.216 -48.2798 4.53117
lradius 58.9363
lwrist 9.18419
lhand 33.2738 36.2164
lfingers 7.12502
lthumb 56.6237 53.1116
rfemur -39.9596 -9.27089 19.4108
rtibia 40.2636
rfoot -30.1107 -35.4802
rtoes 48.3749
lfemur -28.9763 16.3829 -15.431
ltibia 64.7257
lfoot 24.4156 1.55541
ltoes 13.3926
604
root 0.837013 16.2263 -0.477377 -152.748 -60.1795 158.54
lowerback 15.4112 -0.830371 -0.626587
upperback 7.81342 -1.81442 -0.993865
thorax -0.382625 -1.16025 -0.405065
lowerneck -10.0938 -2.21084 -8.75142
upperneck 1.54162 -2.48251 11.0594
head 2.35912 -0.98681 4.66769
rclavicle 9.54166e-015 -2.06736e-014
rhumerus 5.10253 13.34 -29.0015
rradius 34.0762
rwrist -48.6814
rhand 12.7196 19.015
rfingers 7.12502
rthumb 37.701 -6.86496
lclavicle 9.54166e-015 -2.06736e-014
lhumerus 26.6933 -47.6626 5.32464
lradius 58.8015
lwrist 9.53792
lhand 33.1847 36.4354
lfingers 7.12502
lthumb 56.545 53.3943
rfemur -40.4648 -9.27101 19.3446
rtibia 41.9469
rfoot -27.7051 -34.7466
rtoes 46.7533
lfemur -29.8028 17.0086 -15.611
ltibia 66.1501
lfoot 22.2315 0.812106
ltoes 12.3293
605
root 0.789502 16.1537 -0.479052 -153.652 -58.7771 159.214
lowerback 16.2069 -0.581227 -0.447481
upperback 8.15271 -1.52622 -0.726517
thorax -0.435526 -1.04277 -0.259594
lowerneck -9.77973 -2.22983 -8.59356
upperneck 0.734478 -2.4919 10.8297
head 2.06395 -1.01822 4.57029
rclavicle -2.06736e-014 -1.59028e-015
rhumerus 6.42509 14.105 -28.9543
rradius 34.1465
rwrist -49.4093
rhand 11.7546 19.0828
rfingers 7.12502
rthumb 36.7886 -7.03601
lclavicle -2.06736e-014 -1.59028e-015
lhumerus 26.2437 -47.13 6.19832
lradius 58.5252
lwrist 9.91878
lhand 33.1208 36.6828
lfingers 7.12502
lthumb 56.4886 53.687
rfemur -41.2087 -8.99194 19.3352
rtibia 43.5169
rfoot -25.6564 -34.5537
rtoes 45.0869
lfemur -31.0301 17.679 -16.0069
ltibia 67.4811
lfoot 20.2281 0.274309
ltoes 9.9877
606
root 0.737005 16.0883 -0.480237 -154.639 -57.4861 160.054
lowerback 16.986 -0.326936 -0.0830818
upperback 8.45413 -1.19914 -0.401892
thorax -0.51845 -0.901283 -0.168626
lowerneck -9.23851 -2.28114 -8.57076
upperneck -0.217242 -2.54355 10.7276
head 1.69823 -1.07544 4.5359
rclavicle -4.05521e-014 5.56597e-014
rhumerus 7.40583 14.1435 -29.225
rradius 34.2007
rwrist -49.4036
rhand 11.2616 18.9733
rfingers 7.12502
rthumb 36.322 -7.26342
lclavicle -4.05521e-014 5.56597e-014
lhumerus 26.191 -46.7764 6.90691
lradius 58.0119
lwrist 10.5152
lhand 32.7731 36.7674
lfingers 7.12502
lthumb 56.1813 54.0156
rfemur -41.8595 -8.65868 19.4357
rtibia 44.925
rfoot -24.7422 -34.6276
rtoes 44.3047
lfemur -32.3324 18.3727 -16.3431
ltibia 68.6643
lfoot 18.2853 0.203826
ltoes 10.1305
607
root 0.681283 16.0245 -0.487812 -155.352 -56.1987 160.618
lowerback 17.7964 -0.200405 0.127405
upperback 8.83181 -1.07593 -0.115476
thorax -0.530687 -0.872012 0.000514599
lowerneck -9.13315 -2.30602 -8.73509
upperneck -1.06395 -2.52779 10.7043
head 1.43133 -1.08666 4.55964
rclavicle -1.51076e-014 -1.27222e-014
rhumerus 8.8448 13.7548 -29.8552
rradius 34.0181
rwrist -48.8162
rhand 11.0658 19.4497
rfingers 7.12502
rthumb 36.1365 -6.83319
lclavicle -1.51076e-014 -1.27222e-014
lhumerus 25.8678 -46.2208 7.75526
lradius 57.3323
lwrist 11.3763
lhand 32.5036 37.2495
lfingers 7.12502
lthumb 55.9426 54.6836
rfemur -42.4293 -8.35606 19.4165
rtibia 46.1775
rfoot -25.3484 -34.2327
rtoes 45.1967
lfemur -33.6032 18.9593 -16.8063
ltibia 69.5892
lfoot 16.1084 1.57498
ltoes 12.068
608
root 0.624172 15.9692 -0.499891 -156.182 -55.043 161.457
lowerback 18.6021 -0.101074 0.702906
upperback 9.03884 -0.909138 0.0537236
thorax -0.723824 -0.799712 -0.166712
lowerneck -8.78426 -2.39775 -8.71391
upperneck -1.62517 -2.65512 10.8519
head 1.22557 -1.1674 4.60022
rclavicle -6.2816e-014 4.92986e-014
rhumerus 9.94715 13.8531 -30.5393
rradius 33.9166
rwrist -48.7686
rhand 10.6531 19.8294
rfingers 7.12502
rthumb 35.7455 -6.54921
lclavicle -6.2816e-014 4.92986e-014
lhumerus 25.982 -45.9293 8.1712
lradius 56.6335
lwrist 12.1385
lhand 32.5643 37.7404
lfingers 7.12502
lthumb 55.9964 55.133
rfemur -42.9512 -8.16529 19.7231
rtibia 47.2628
rfoot -25.736 -33.8131
rtoes 45.5564
lfemur -35.0562 19.4594 -17.0664
ltibia 70.3261
lfoot 13.6835 3.81915
ltoes 20.0838
609
root 0.566294 15.9226 -0.512858 -156.964 -54.0411 162.555
lowerback 19.2642 -0.0584789 1.5207
upperback 9.16819 -0.754686 0.230034
thorax -0.921165 -0.72199 -0.464942
lowerneck -8.71312 -2.52559 -8.52245
upperneck -1.84853 -2.84737 11.0068
head 1.16854 -1.27015 4.60929
rclavicle 7.07673e-014 -2.06736e-014
rhumerus 11.1298 13.9978 -31.1821
rradius 33.7593
rwrist -48.932
rhand 9.64803 19.728
rfingers 7.12502
rthumb 34.7924 -6.87625
lclavicle 7.07673e-014 -2.06736e-014
lhumerus 26.3067 -45.6641 8.42396
lradius 55.8342
lwrist 12.4831
lhand 32.5832 38.0493
lfingers 7.12502
lthumb 56.0132 55.4288
rfemur -43.666 -8.05832 20.3357
rtibia 48.2238
rfoot -24.7721 -33.8534
rtoes 44.4025
lfemur -36.897 19.8927 -17.2964
ltibia 70.9167
lfoot 11.0511 5.44645
ltoes 27.4466
610
root 0.512576 15.8722 -0.525409 -157.426 -52.9277 163.476
lowerback 19.7751 0.037756 1.8932
upperback 9.37122 -0.608237 0.550521
thorax -0.954193 -0.668166 -0.361566
lowerneck -8.98758 -2.63892 -8.56044
upperneck -2.03523 -2.98038 11.1629
head 1.17504 -1.3344 4.65689
rclavicle 8.50798e-014 -4.13472e-014
rhumerus 12.8132 13.5226 -31.902
rradius 33.338
rwrist -48.5403
rhand 9.13503 19.4614
rfingers 7.12502
rthumb 34.3055 -7.25407
lclavicle 8.50798e-014 -4.13472e-014
lhumerus 26.5261 -45.1619 8.9341
lradius 54.9522
lwrist 12.4851
lhand 32.6366 38.7964
lfingers 7.12502
lthumb 56.0605 56.1392
rfemur -44.6291 -7.8357 20.8435
rtibia 49.1164
rfoot -23.4225 -33.7197
rtoes 43.2073
lfemur -38.9673 20.186 -17.821
ltibia 71.2979
lfoot 8.84852 6.00659
ltoes 26.168
611
root 0.457699 15.8133 -0.539779 -157.9 -51.8258 164.435
lowerback 20.545 0.0322698 2.57529
upperback 9.43576 -0.519688 0.672916
thorax -1.26622 -0.628501 -0.62773
lowerneck -9.44246 -2.76923 -8.89716
upperneck -1.91492 -3.11976 11.6979
head 1.31582 -1.38418 4.86801
rclavicle -4.77083e-014 1.27222e-014
rhumerus 14.1653 13.0002 -33.1437
rradius 33.0058
rwrist -47.9662
rhand 9.18098 19.2165
rfingers 7.12502
rthumb 34.3491 -7.48911
lclavicle -4.77083e-014 1.27222e-014
lhumerus 26.9143 -44.8047 9.05917
lradius 54.0294
lwrist 12.0721
lhand 32.9339 39.4147
lfingers 7.12502
lthumb 56.3235 56.5507
rfemur -45.5501 -7.44454 21.3677
rtibia 49.9841
rfoot -22.5769 -33.5692
rtoes 42.223
lfemur -41.031 20.4094 -18.3147
ltibia 71.4121
lfoot 7.25664 6.16968
ltoes 21.6536
612
root 0.394542 15.7629 -0.551863 -157.85 -50.8849 164.895
lowerback 21.1767 -0.0675381 3.19123
upperback 9.44736 -0.547294 0.698987
thorax -1.56662 -0.64224 -0.935976
lowerneck -9.91525 -2.83403 -8.95778
upperneck -1.69419 -3.1941 11.8833
head 1.46999 -1.40379 4.92737
rclavicle -2.22639e-014 0
rhumerus 15.271 13.2467 -34.0872
rradius 32.9267
rwrist -48.1411
rhand 8.99029 19.4345
rfingers 7.12502
rthumb 34.1681 -7.31185
lclavicle -2.22639e-014 0
lhumerus 27.3408 -44.4892 9.25025
lradius 52.9289
lwrist 11.2146
lhand 32.7185 39.3153
lfingers 7.12502
lthumb 56.1329 56.6015
rfemur -46.4565 -7.24136 21.5668
rtibia 50.8668
rfoot -22.6602 -33.3189
rtoes 41.8222
lfemur -43.132 20.2543 -19.1529
ltibia 71.2096
lfoot 5.74343 6.93282
ltoes 20.4554
613
root 0.330341 15.7233 -0.562284 -157.364 -49.9906 164.762
lowerback 21.4844 -0.0858501 3.24086
upperback 9.69282 -0.611118 0.853995
thorax -1.45293 -0.695753 -0.783747
lowerneck -10.1266 -2.80781 -8.64127
upperneck -2.03406 -3.16058 11.5125
head 1.38546 -1.40002 4.76137
rclavicle -1.90833e-014 5.24792e-014
rhumerus 16.6316 13.2791 -34.6884
rradius 32.7944
rwrist -48.4458
rhand 8.98195 19.8604
rfingers 7.12502
rthumb 34.1601 -6.88763
lclavicle -1.90833e-014 5.24792e-014
lhumerus 27.7217 -43.8066 9.89158
lradius 51.662
lwrist 9.88411
lhand 32.5087 39.1298
lfingers 7.12502
lthumb 55.9471 56.5604
rfemur -47.2721 -7.20355 21.3314
rtibia 51.741
rfoot -23.2692 -32.7859
rtoes 42.5245
lfemur -45.0855 19.6759 -20.3628
ltibia 70.6788
lfoot 4.18926 7.81926
ltoes 20.7579
